<svg xmlns="http://www.w3.org/2000/svg" width="187" height="160" viewBox="0 0 187 160" fill="none">
<path d="M85.248 0L93.5 10.341L101.752 0H158.69L187 35.481V52.5439L143.956 93.3333H106.857V123.595L114.627 133.333H150.297L164.722 119.664L183.114 139.004L160.957 160H101.752L93.5 149.658L85.248 160H28.3097L0 124.518V107.455L43.0438 66.6667H80.1429V36.4046L72.3727 26.6667H36.7028L22.2777 40.3353L3.88551 20.9953L26.0425 0H85.248ZM53.7041 93.3333L28.401 117.311L41.2234 133.381H72.3352L80.1429 123.596V93.3333H53.7041ZM114.665 26.6187L106.857 36.4038V66.6667H133.296L158.599 42.6888L145.777 26.6187H114.665Z" fill="#FFFFFF"/>
</svg>
